<mxfile host="65bd71144e" modified="2023-06-16T16:51:46.816Z" agent="Mozilla/5.0 (Macintosh; Intel Mac OS X 13_4_0) AppleWebKit/537.36 (KHTML, like Gecko) Code/1.79.1 Chrome/108.0.5359.215 Electron/22.5.7 Safari/537.36" etag="Uw5YEJ9Yjk4irkGlnhwD" version="21.4.0" type="embed">
    <diagram id="SgoCRJlDQVXVclui49dq" name="Page-1">
        <mxGraphModel dx="435" dy="520" grid="1" gridSize="10" guides="1" tooltips="1" connect="1" arrows="1" fold="1" page="1" pageScale="1" pageWidth="850" pageHeight="1100" background="#ffffff" math="0" shadow="0">
            <root>
                <mxCell id="0"/>
                <mxCell id="1" parent="0"/>
                <mxCell id="77" value="" style="rounded=0;whiteSpace=wrap;html=1;fillColor=#60A917;opacity=50;" vertex="1" parent="1">
                    <mxGeometry x="435" y="125" width="190" height="440" as="geometry"/>
                </mxCell>
                <mxCell id="40" value="" style="group" parent="1" vertex="1" connectable="0">
                    <mxGeometry x="40" y="260" width="380" height="170" as="geometry"/>
                </mxCell>
                <mxCell id="41" value="" style="rounded=1;whiteSpace=wrap;html=1;strokeColor=#000000;fillColor=#CCCCCC;fontColor=#000000;strokeWidth=2;fontSize=17;align=left;" parent="40" vertex="1">
                    <mxGeometry width="380" height="170" as="geometry"/>
                </mxCell>
                <mxCell id="42" value="&lt;font style=&quot;font-size: 27px;&quot; color=&quot;#000000&quot;&gt;Python Development Tool&lt;/font&gt;" style="text;html=1;strokeColor=none;fillColor=none;align=center;verticalAlign=middle;whiteSpace=wrap;rounded=0;" parent="40" vertex="1">
                    <mxGeometry x="38.261132227452364" y="33.26086956521739" width="124.34867973922019" height="103.4782608695652" as="geometry"/>
                </mxCell>
                <mxCell id="43" value="&lt;span style=&quot;font-size: 20px;&quot;&gt;Generic Debugger&lt;/span&gt;" style="rounded=0;whiteSpace=wrap;html=1;strokeColor=#000000;fillColor=#FFFFFF;strokeWidth=2;fontColor=#000000;" parent="40" vertex="1">
                    <mxGeometry x="210.436227250988" y="59.1304347826087" width="143.47924585294638" height="51.7391304347826" as="geometry"/>
                </mxCell>
                <mxCell id="50" value="&lt;font style=&quot;font-size: 20px;&quot;&gt;Generic Java Debugger&lt;/font&gt;" style="rounded=0;whiteSpace=wrap;html=1;strokeColor=#000000;fillColor=#FFFFFF;strokeWidth=2;fontColor=#000000;" parent="1" vertex="1">
                    <mxGeometry x="840" y="214.96" width="150" height="80" as="geometry"/>
                </mxCell>
                <mxCell id="51" value="&lt;font style=&quot;font-size: 20px;&quot;&gt;Generic Python Debugger&lt;br&gt;&lt;/font&gt;" style="rounded=0;whiteSpace=wrap;html=1;strokeColor=#000000;fillColor=#FFFFFF;strokeWidth=2;fontColor=#000000;" parent="1" vertex="1">
                    <mxGeometry x="840" y="394.96000000000004" width="150" height="80" as="geometry"/>
                </mxCell>
                <mxCell id="39" value="" style="group" parent="1" vertex="1" connectable="0">
                    <mxGeometry x="40" y="70" width="380" height="170" as="geometry"/>
                </mxCell>
                <mxCell id="36" value="" style="rounded=1;whiteSpace=wrap;html=1;strokeColor=#000000;fillColor=#CCCCCC;fontColor=#000000;strokeWidth=2;fontSize=17;align=left;" parent="39" vertex="1">
                    <mxGeometry width="380" height="170" as="geometry"/>
                </mxCell>
                <mxCell id="37" value="&lt;font style=&quot;font-size: 27px;&quot; color=&quot;#000000&quot;&gt;Java Development Tool&lt;/font&gt;" style="text;html=1;strokeColor=none;fillColor=none;align=center;verticalAlign=middle;whiteSpace=wrap;rounded=0;" parent="39" vertex="1">
                    <mxGeometry x="38.261132227452364" y="33.26086956521739" width="124.34867973922019" height="103.47826086956523" as="geometry"/>
                </mxCell>
                <mxCell id="38" value="&lt;font style=&quot;font-size: 20px;&quot;&gt;Generic Debugger&lt;/font&gt;" style="rounded=0;whiteSpace=wrap;html=1;strokeColor=#000000;fillColor=#FFFFFF;strokeWidth=2;fontColor=#000000;" parent="39" vertex="1">
                    <mxGeometry x="210.436227250988" y="59.130434782608695" width="143.47924585294638" height="51.739130434782616" as="geometry"/>
                </mxCell>
                <mxCell id="58" value="" style="group" vertex="1" connectable="0" parent="1">
                    <mxGeometry x="40" y="450" width="380" height="170" as="geometry"/>
                </mxCell>
                <mxCell id="45" value="" style="rounded=1;whiteSpace=wrap;html=1;strokeColor=#000000;fillColor=#CCCCCC;fontColor=#000000;strokeWidth=2;fontSize=17;align=left;" parent="58" vertex="1">
                    <mxGeometry width="380" height="170" as="geometry"/>
                </mxCell>
                <mxCell id="46" value="&lt;font style=&quot;font-size: 27px;&quot; color=&quot;#000000&quot;&gt;Visual Studio Code&lt;/font&gt;" style="text;html=1;strokeColor=none;fillColor=none;align=center;verticalAlign=middle;whiteSpace=wrap;rounded=0;" parent="58" vertex="1">
                    <mxGeometry x="38.261132227452364" y="33.26086956521738" width="124.34867973922019" height="103.47826086956519" as="geometry"/>
                </mxCell>
                <mxCell id="47" value="&lt;font style=&quot;font-size: 20px;&quot;&gt;Generic Debugger&lt;/font&gt;" style="rounded=0;whiteSpace=wrap;html=1;strokeColor=#000000;fillColor=#FFFFFF;strokeWidth=2;fontColor=#000000;" parent="58" vertex="1">
                    <mxGeometry x="210.436227250988" y="59.13043478260866" width="143.47924585294638" height="51.739130434782595" as="geometry"/>
                </mxCell>
                <mxCell id="59" value="&lt;font style=&quot;font-size: 25px;&quot; color=&quot;#000000&quot;&gt;&lt;span style=&quot;font-weight: normal;&quot;&gt;DAP&lt;/span&gt;&lt;/font&gt;" style="text;html=1;strokeColor=none;fillColor=#FFFFFF;align=center;verticalAlign=middle;whiteSpace=wrap;rounded=0;fontStyle=1;fillStyle=solid;" vertex="1" parent="1">
                    <mxGeometry x="490" y="322.47" width="80" height="45" as="geometry"/>
                </mxCell>
                <mxCell id="63" style="edgeStyle=none;html=1;exitX=1;exitY=0.5;exitDx=0;exitDy=0;fontColor=#000000;strokeColor=#000000;strokeWidth=2;endArrow=none;endFill=0;" edge="1" parent="1" source="38">
                    <mxGeometry relative="1" as="geometry">
                        <mxPoint x="470" y="345" as="targetPoint"/>
                    </mxGeometry>
                </mxCell>
                <mxCell id="64" style="edgeStyle=none;html=1;exitX=1;exitY=0.5;exitDx=0;exitDy=0;entryX=0;entryY=0.5;entryDx=0;entryDy=0;fontColor=#000000;strokeColor=#000000;strokeWidth=2;" edge="1" parent="1" source="43" target="59">
                    <mxGeometry relative="1" as="geometry"/>
                </mxCell>
                <mxCell id="65" style="edgeStyle=none;html=1;exitX=1;exitY=0.5;exitDx=0;exitDy=0;fontColor=#000000;strokeColor=#000000;strokeWidth=2;endArrow=none;endFill=0;" edge="1" parent="1" source="47">
                    <mxGeometry relative="1" as="geometry">
                        <mxPoint x="470" y="345" as="targetPoint"/>
                    </mxGeometry>
                </mxCell>
                <mxCell id="75" style="edgeStyle=none;html=1;exitX=1;exitY=0.5;exitDx=0;exitDy=0;entryX=0;entryY=0.5;entryDx=0;entryDy=0;strokeWidth=2;strokeColor=#000000;" edge="1" parent="1" source="67" target="50">
                    <mxGeometry relative="1" as="geometry"/>
                </mxCell>
                <mxCell id="67" value="&lt;font style=&quot;font-size: 20px;&quot; color=&quot;#000000&quot;&gt;Java Debug Adapter&lt;/font&gt;" style="rounded=1;whiteSpace=wrap;html=1;fillColor=#CCCCCC;strokeColor=#000000;strokeWidth=2;" vertex="1" parent="1">
                    <mxGeometry x="650" y="214.99" width="160" height="80" as="geometry"/>
                </mxCell>
                <mxCell id="76" style="edgeStyle=none;html=1;exitX=1;exitY=0.5;exitDx=0;exitDy=0;entryX=0;entryY=0.5;entryDx=0;entryDy=0;strokeWidth=2;strokeColor=#000000;" edge="1" parent="1" source="68" target="51">
                    <mxGeometry relative="1" as="geometry"/>
                </mxCell>
                <mxCell id="68" value="&lt;font style=&quot;font-size: 20px;&quot; color=&quot;#000000&quot;&gt;Python Debug Adapter&lt;/font&gt;" style="rounded=1;whiteSpace=wrap;html=1;fillColor=#CCCCCC;strokeColor=#000000;strokeWidth=2;" vertex="1" parent="1">
                    <mxGeometry x="650" y="394.99" width="160" height="80" as="geometry"/>
                </mxCell>
                <mxCell id="73" value="" style="group;rotation=90;" vertex="1" connectable="0" parent="1">
                    <mxGeometry x="639.9999999999999" y="344.94594594594594" width="1.1368683772161603e-13" height="0.05405405405406327" as="geometry"/>
                </mxCell>
                <mxCell id="71" style="edgeStyle=none;html=1;exitX=1;exitY=0.5;exitDx=0;exitDy=0;strokeWidth=2;strokeColor=#000000;endArrow=classic;endFill=1;" edge="1" parent="73" source="59">
                    <mxGeometry relative="1" as="geometry">
                        <mxPoint x="-39.999999999999886" y="0.05405405405406327" as="targetPoint"/>
                    </mxGeometry>
                </mxCell>
                <mxCell id="72" style="edgeStyle=none;html=1;exitX=0;exitY=0.5;exitDx=0;exitDy=0;endArrow=none;endFill=0;strokeWidth=2;strokeColor=#000000;startArrow=classic;startFill=1;" edge="1" parent="73" source="68">
                    <mxGeometry relative="1" as="geometry">
                        <mxPoint x="-39.999999999999886" y="0.05405405405406327" as="targetPoint"/>
                    </mxGeometry>
                </mxCell>
                <mxCell id="70" style="edgeStyle=none;html=1;exitX=0;exitY=0.5;exitDx=0;exitDy=0;endArrow=none;endFill=0;strokeWidth=2;strokeColor=#000000;startArrow=classic;startFill=1;" edge="1" parent="1" source="67">
                    <mxGeometry relative="1" as="geometry">
                        <mxPoint x="600" y="345" as="targetPoint"/>
                    </mxGeometry>
                </mxCell>
            </root>
        </mxGraphModel>
    </diagram>
</mxfile>